<?xml version="1.0" standalone="no"?>
<!DOCTYPE svg PUBLIC "-//W3C//DTD SVG 20010904//EN"
 "http://www.w3.org/TR/2001/REC-SVG-20010904/DTD/svg10.dtd">
<svg version="1.0" xmlns="http://www.w3.org/2000/svg"
 width="16.000000pt" height="16.000000pt" viewBox="0 0 16.000000 16.000000"
 preserveAspectRatio="xMidYMid meet">
<metadata>
Created by potrace 1.11, written by Peter Selinger 2001-2013
</metadata>
<g transform="translate(0.000000,16.000000) scale(0.002759,-0.002759)"
fill="#000000" stroke="none">
<path d="M0 2900 l0 -2900 2900 0 2900 0 0 2900 0 2900 -2900 0 -2900 0 0
-2900z m5560 0 l0 -2660 -2660 0 -2660 0 0 2660 0 2660 2660 0 2660 0 0 -2660z"/>
<path d="M924 4193 c19 -32 111 -200 206 -373 498 -909 627 -1143 676 -1229
l54 -94 0 -428 0 -429 200 0 200 0 0 427 0 427 318 578 317 579 3 -1006 2
-1005 221 0 220 0 -7 518 -7 517 96 88 95 87 35 -42 c19 -24 142 -185 273
-359 132 -174 325 -427 429 -562 l190 -246 243 0 c192 -1 242 2 236 12 -15 23
-850 1132 -973 1291 -67 87 -124 163 -127 170 -2 6 234 263 526 571 l529 560
-247 3 -247 2 -200 -203 c-342 -347 -799 -820 -825 -854 l-25 -32 3 544 4 545
-287 -2 -287 -3 -65 -120 c-35 -66 -148 -282 -250 -480 -102 -198 -222 -430
-267 -515 -44 -85 -91 -180 -102 -210 -18 -45 -23 -51 -29 -35 -36 97 -78 182
-264 535 -118 223 -265 501 -329 618 l-115 212 -228 0 -228 0 33 -57z"/>
</g>
</svg>
