<svg xmlns="http://www.w3.org/2000/svg" viewBox="0 0 106.13 13.23">
  <path d="M6.89,11v4.3h-2V11q-.13-.2-.5-.86L3.56,8.56,2.49,6.62,1.43,4.69.57,3.11Q.2,2.45.07,2.25H2.3q.16.27.58,1L3.8,5,4.82,7l.88,1.68.2.59A2.57,2.57,0,0,0,6,8.94l.11-.3Q6.52,7.94,7,7L8,5l.9-1.73q.41-.76.57-1H11.7Z" transform="translate(-0.07 -2.25)"/>
  <path d="M9.83,11.61a3.88,3.88,0,0,1,.31-1.56A4.14,4.14,0,0,1,12.25,7.9a3.63,3.63,0,0,1,1.52-.32,3.44,3.44,0,0,1,1,.14,3.31,3.31,0,0,1,.77.33,2.42,2.42,0,0,1,.52.41,1.52,1.52,0,0,1,.27.38l.07-1.06h1.48V15.3H16.33v-1a2.11,2.11,0,0,1-.29.34,2.22,2.22,0,0,1-.51.37,3.78,3.78,0,0,1-.75.3,3.56,3.56,0,0,1-1,.13,4,4,0,0,1-1.59-.31,3.86,3.86,0,0,1-2.07-2.08A3.75,3.75,0,0,1,9.83,11.61Zm1.55-.09a2.48,2.48,0,0,0,.19,1,2.34,2.34,0,0,0,1.29,1.29,2.53,2.53,0,0,0,1,.19,2.6,2.6,0,0,0,1-.19,2.39,2.39,0,0,0,.79-.52,2.33,2.33,0,0,0,.51-.77,2.66,2.66,0,0,0,0-1.93,2.23,2.23,0,0,0-.51-.76,2.47,2.47,0,0,0-.79-.51,2.6,2.6,0,0,0-1-.19,2.53,2.53,0,0,0-1,.19,2.38,2.38,0,0,0-.77.51,2.41,2.41,0,0,0-.7,1.73Z" transform="translate(-0.07 -2.25)"/>
  <path d="M20,7.78h1.35q0,.56.06,1t.06.91a3.71,3.71,0,0,1,1.18-1.55,3,3,0,0,1,1.88-.58,2.58,2.58,0,0,1,1.82.63,2.22,2.22,0,0,1,.72,1.62V15.3H25.56V10.53a1.58,1.58,0,0,0-.4-1A1.55,1.55,0,0,0,24,9.11a2.53,2.53,0,0,0-1,.19,2.33,2.33,0,0,0-1.29,1.29,2.53,2.53,0,0,0-.19,1V15.3H20Z" transform="translate(-0.07 -2.25)"/>
  <path d="M28.67,11.61A3.88,3.88,0,0,1,29,10.05,4.14,4.14,0,0,1,31.09,7.9a3.63,3.63,0,0,1,1.52-.32,3.44,3.44,0,0,1,1,.14,3.31,3.31,0,0,1,.77.33,2.42,2.42,0,0,1,.52.41,1.52,1.52,0,0,1,.27.38l.07-1.06h1.48V15.3H35.17v-1a2.11,2.11,0,0,1-.29.34,2.22,2.22,0,0,1-.51.37,3.78,3.78,0,0,1-.75.3,3.56,3.56,0,0,1-1,.13A4,4,0,0,1,31,15.17,3.86,3.86,0,0,1,29,13.09,3.75,3.75,0,0,1,28.67,11.61Zm1.55-.09a2.48,2.48,0,0,0,.19,1,2.34,2.34,0,0,0,1.29,1.29,2.53,2.53,0,0,0,1,.19,2.6,2.6,0,0,0,1-.19,2.39,2.39,0,0,0,.79-.52,2.33,2.33,0,0,0,.51-.77,2.66,2.66,0,0,0,0-1.93,2.23,2.23,0,0,0-.51-.76,2.47,2.47,0,0,0-.79-.51,2.6,2.6,0,0,0-1-.19,2.53,2.53,0,0,0-1,.19,2.38,2.38,0,0,0-.77.51,2.41,2.41,0,0,0-.7,1.73Z" transform="translate(-0.07 -2.25)"/>
  <path d="M51.28,15.3l-1.21-1.55-1.13-1.48-1.12-1.49-1.2-1.57-.45.46-.47.42q0,1.39,0,2.6t0,2.6H43.54v-13h2.18V7.13a1.8,1.8,0,0,1,0,.31,1.8,1.8,0,0,0,0,.31l.18-.23A1.68,1.68,0,0,0,46,7.29q1.28-1.21,2.47-2.51T51,2.25h2.5q-1.35,1.4-2.67,2.83T48.11,7.9l1.45,1.88,1.37,1.81,1.36,1.82,1.42,1.89Z" transform="translate(-0.07 -2.25)"/>
  <path d="M61.33,15.46H60l-.18-2.09a4,4,0,0,1-1.16,1.51,3,3,0,0,1-1.9.59A2.59,2.59,0,0,1,55,14.86a2.22,2.22,0,0,1-.71-1.63V7.78h1.53v4.77a1.5,1.5,0,0,0,.4,1,1.66,1.66,0,0,0,1.14.45,2.53,2.53,0,0,0,1-.19,2.4,2.4,0,0,0,.77-.51,2.28,2.28,0,0,0,.5-.77,2.65,2.65,0,0,0,.18-1V7.78h1.55Z" transform="translate(-0.07 -2.25)"/>
  <path d="M69.77,15.3H62.68L67,9.09H64.48a1.58,1.58,0,0,1-1-.34A1.13,1.13,0,0,1,63,7.83V7.06H64.4v.23q0,.31.14.4a.92.92,0,0,0,.47.09h4.81l-4.19,6h4.14Z" transform="translate(-0.07 -2.25)"/>
  <path d="M71.39,7.78h1.35q0,.56.06,1t.06.91A4,4,0,0,1,74,8.16a2.8,2.8,0,0,1,1.81-.58,2.66,2.66,0,0,1,1.76.56,2.17,2.17,0,0,1,.77,1.46,4.29,4.29,0,0,1,1.11-1.46,2.78,2.78,0,0,1,1.77-.56A2.6,2.6,0,0,1,83,8.21a2.24,2.24,0,0,1,.71,1.62V15.3H82.19V10.53a1.61,1.61,0,0,0-.39-1,1.54,1.54,0,0,0-1.14-.44A2.14,2.14,0,0,0,79,9.8a2.72,2.72,0,0,0-.65,1.77V15.3H76.79V10.53a1.45,1.45,0,0,0-1.53-1.42,2.4,2.4,0,0,0-1,.19,2.23,2.23,0,0,0-.74.51,2.19,2.19,0,0,0-.47.77,2.9,2.9,0,0,0-.16,1V15.3H71.39Z" transform="translate(-0.07 -2.25)"/>
  <path d="M85.62,4.9a.94.94,0,0,1,.31-.72,1,1,0,0,1,.68-.29,1,1,0,0,1,1,1,.92.92,0,0,1-.31.71,1,1,0,0,1-.67.28,1,1,0,0,1-.68-.28A.91.91,0,0,1,85.62,4.9Zm1.73,10.4H85.82V7.78h1.53Z" transform="translate(-0.07 -2.25)"/>
  <path d="M89.51,7.78h1.35q0,.56.06,1T91,9.7a3.71,3.71,0,0,1,1.18-1.55A3,3,0,0,1,94,7.58a2.58,2.58,0,0,1,1.82.63,2.22,2.22,0,0,1,.72,1.62V15.3H95V10.53a1.58,1.58,0,0,0-.4-1,1.55,1.55,0,0,0-1.13-.44,2.53,2.53,0,0,0-1,.19,2.33,2.33,0,0,0-1.29,1.29,2.53,2.53,0,0,0-.19,1V15.3H89.51Z" transform="translate(-0.07 -2.25)"/>
  <path d="M98.15,11.61a3.88,3.88,0,0,1,.31-1.56,4.14,4.14,0,0,1,2.11-2.15,3.63,3.63,0,0,1,1.52-.32,3.44,3.44,0,0,1,1,.14,3.31,3.31,0,0,1,.77.33,2.42,2.42,0,0,1,.52.41,1.52,1.52,0,0,1,.27.38l.07-1.06h1.48V15.3h-1.55v-1a2.11,2.11,0,0,1-.29.34,2.22,2.22,0,0,1-.51.37,3.78,3.78,0,0,1-.75.3,3.56,3.56,0,0,1-1,.13,4,4,0,0,1-1.59-.31,3.86,3.86,0,0,1-2.07-2.08A3.75,3.75,0,0,1,98.15,11.61Zm1.55-.09a2.48,2.48,0,0,0,.19,1,2.34,2.34,0,0,0,1.29,1.29,2.53,2.53,0,0,0,1,.19,2.6,2.6,0,0,0,1-.19,2.39,2.39,0,0,0,.79-.52,2.33,2.33,0,0,0,.51-.77,2.66,2.66,0,0,0,0-1.93,2.23,2.23,0,0,0-.51-.76,2.47,2.47,0,0,0-.79-.51,2.6,2.6,0,0,0-1-.19,2.53,2.53,0,0,0-1,.19,2.38,2.38,0,0,0-.77.51,2.41,2.41,0,0,0-.7,1.73Z" transform="translate(-0.07 -2.25)"/>
</svg>